<?xml version="1.0" encoding="iso-8859-1"?>
<!-- Generator: Adobe Illustrator 19.0.0, SVG Export Plug-In . SVG Version: 6.00 Build 0)  -->
<svg version="1.1" id="Layer_1" xmlns="http://www.w3.org/2000/svg" xmlns:xlink="http://www.w3.org/1999/xlink" x="0px" y="0px"
	 viewBox="0 0 512.001 512.001" style="enable-background:new 0 0 512.001 512.001;" xml:space="preserve">
<circle style="fill:#006775;" cx="256.001" cy="256.001" r="256.001"/>
<path style="fill:#055661;" d="M508.011,301.265L311.796,105.053l-5.571,5.571l-42.99-42.99l-10.075,43.523l-70.698,30.946
	l51.594,51.594l-46.956,202.852l-40.217,22.842l92.027,92.027c5.651,0.372,11.345,0.582,17.089,0.582
	C381.938,512,486.637,421.06,508.011,301.265L508.011,301.265z"/>
<path style="fill:#E6FFFF;" d="M179.444,11.648c1.841,1.995,2.944,4.233,3.554,6.47l32.019,13.344c0,0,5.32,2.344,9.234,3.64
	c3.919,1.303,8.927,5.324,10.535,6.577c1.606,1.248,16.484,9.852,16.484,9.852s4.701-0.994,8.478,0.193
	c3.772,1.19,27.743,9.174,27.743,9.174s3.116,2.473,4.717,6.44l3.235,8.015l68.971,37.175l21.252-3.799l34.73,20.359l21.609-2.32
	l-21.879,5.439l-33.064-17.911l-22.295,4.597l-74.663-40.628c0,0-3.488-11.036-5.765-12.355c-2.276-1.32-9.563-3.314-11.418-4.224
	c-1.857-0.905-20.334-4.03-20.334-4.03s19.896,17.513,27.669,21.86l14.022,10.894l2.009,15.967
	c0.961,7.633,6.623,11.589,6.623,11.589s9.52,2.027,10.994,4.604c1.473,2.576-1.732,21.015,1.675,23.396
	c3.412,2.383,11.506,9.838,12.046,11.238c0.54,1.401-0.924,26.475-0.924,26.475l-2.376-24.834l-12.106-11.732l-4.075-20.433
	c-0.577-2.909-4.561-2.646-9.372-5.67c-4.81-3.023-5.151-4.545-6.954-7.194l-6.639-25.021l-6.602-1.197
	c0,0-2.925,14.196-3.854,17.496c-0.929,3.3-4.235,14.69-4.235,14.69s0.093,10.81-1.211,14.978c-1.306,4.18-5.974,5.02-5.974,5.02
	l-9.395,15.423l3.928,7.615l-1.564,1.557l-6.398-9.621c0,0,4.768-10.249,6.016-12.679c1.248-2.429,8.507-5.559,9.716-10.073
	c1.213-4.517,1.678-21.508,2.095-23.33c0.419-1.818,5.08-13.852,4.985-16.428c-0.095-2.579-1.774-11.753-1.774-11.753
	s-7.649-6.398-11.613-9.386c-3.961-2.985-10.422-12.302-12.281-13.21c-1.855-0.907-7.575-4.459-9.257-6.125
	c-1.687-1.664-6.498-4.689-6.498-4.689l5.611,23.503c0,0-5.623,3.502-2.246,6.034c3.372,2.535,9.598,5.404,11.446,7.107
	c1.843,1.702,0.842,5.308,0.353,7.43c-0.489,2.127,10.752,26.606,10.752,26.606s-0.879,6.828-3.605,6.68
	c-2.716-0.145-9.102-3.051-11.043-2.858c-1.938,0.193-14.436,2.916-14.881,4.087c-0.445,1.178-1.275,11.538-2.609,12.825
	l-30.384,24.813l26.289-27.194c0,0-2.404-11.257,2.311-13.049c4.715-1.792,6.595-4.717,10.272-4.992
	c3.675-0.272,10-2.337,10.782-1.993c0.787,0.337,5.853,1.501,5.853,1.501l-2.476-8.715c0,0-8.332-18.373-8.325-19.169
	c0.012-0.8,0.514-3.719-1.18-4.59c-1.697-0.87-7.419-4.427-7.419-4.427l-2.434-4.389c0,0,0.196-6.833-0.086-7.852
	c-0.282-1.022-5.432-22.027-5.432-22.027s-25.556-10.219-40.134-15.974c-0.184,0.644-0.326,1.01-0.326,1.01l-5.608,34.984
	l9.167,32.102l-44.218,47.078l9.525,39.38l-13.831-39.913l38.384-47.103l-5.425-28.986l-1.022-43.329l-4.955-8.76
	C169.326,15.006,174.348,13.243,179.444,11.648L179.444,11.648z"/>
<g>
	<path style="fill:#CEA262;" d="M268.942,199.067l4.369-8.29L263.235,67.635l-25.302,0.931l-4.369,8.292L239.18,200L268.942,199.067
		z"/>
	<path style="fill:#CEA262;" d="M180.443,112.395l7.817-5.167l123.536-2.176l1.578,25.27l-7.815,5.169l-123.096,6.612
		L180.443,112.395L180.443,112.395z"/>
</g>
<g>
	<path style="fill:#EDDC8D;" d="M188.26,107.229l123.536-2.176l1.578,25.272l-123.566,3.799L188.26,107.229L188.26,107.229z"/>
	<path style="fill:#EDDC8D;" d="M273.31,190.778L263.235,67.635l-25.305,0.934l8.464,123.333L273.31,190.778z"/>
</g>
<path style="fill:#8D8D73;" d="M243.858,161.422c0,0-81.307,13.172-76.207,84.701l11.946,167.456l154.142-1.995l-0.384-183.338
	c0.14-29.09-15.471-67.353-62.969-69.171l-0.365-0.014l-0.247,0.076l-12.33,7.424l-8.352-6.076
	C247.38,160.759,245.637,161.071,243.858,161.422L243.858,161.422z"/>
<path style="fill:#D8DBBA;" d="M202.935,411.584l-9.684-175.008c0,0-3.16-65.96,55.691-76.2l17.005,12.369l-17.998,18.179
	l10.901,32.591l-2.946-25.796l28.774-24.16l-14.904-14.422c66.323,2.909,63.581,69.109,63.581,69.109l0.384,183.338H202.935
	L202.935,411.584z"/>
<path style="fill:#4DD130;" d="M146.884,419.39H367.83l12.016-39.023l-18.283,22.781l-2.795-42.416l-17.054,39.88l-8.083-42.294
	l-11.767,44.323l-14.892-42.922l-7.045,39.066l-12.41-39.685l-9.009,39.685l-12.013-55.478l-16.715,54.258l-11.333-40.706
	l-10.703,33.83l-16.615-32.151l-0.524,41.057l-21.455-45.752l-2.051,42.706l-11.734-29.028l-2.369,29.535L155.24,359.55v39.599
	c0,0-23.088-26.317-23.088-23.778C132.152,377.913,146.884,419.39,146.884,419.39L146.884,419.39z"/>
<path style="fill:#45BC45;" d="M146.884,419.39l-2.307-20.689l13.261,10.561l3.5-20.964l13.049,18.099l3.799-12.62l11.28,12.728
	l3.854-28.558l19.321,31.307l4.608-22.832l13.665,20.02l7.598-18.968l11.269,19.077l15.6-33.894l13.354,35.565l9.686-24.481
	l11.773,23.685l8.585-21.762l13.866,22.908l11.043-21.955l7.799,23.205l14.006-24.855l3.924,26.717l11.289-13.186l-2.879,20.896
	H146.884V419.39z"/>
<g>
	<path style="fill:#A8A88D;" d="M233.544,286.277c0.102,0.535,0.612,1.248,1.555,2.152c0.941,0.889,2.293,2.002,4.066,3.319
		c1.161,0.821,2.33,1.631,3.54,2.427c1.208,0.794,2.418,1.589,3.617,2.399c0.526,0.37,1.208,0.863,2.051,1.467
		c0.845,0.602,1.815,1.303,2.944,2.111c0.789,0.535,1.62,1.07,2.491,1.606c0.872,0.535,1.797,1.068,2.779,1.617
		c0.678,0.454,1.431,0.945,2.262,1.483c0.817,0.533,1.762,1.11,2.812,1.727c0.6,0.328,1.121,0.903,1.589,1.755
		c0.452,0.849,0.838,1.931,1.152,3.277l-0.156,1.043l-0.372,0.205c-0.261,0-0.637-0.109-1.121-0.342
		c-0.484-0.233-1.108-0.563-1.864-0.987c-0.138-0.084-0.81-0.372-1.993-0.877c-1.183-0.521-2.883-1.236-5.097-2.18
		c-1.215-0.482-2.351-1.029-3.412-1.631c-1.05-0.605-2.02-1.236-2.932-1.906c-0.528-0.399-1.206-0.849-1.997-1.331
		c-0.805-0.48-1.743-1.001-2.812-1.564c-1.112-0.575-2.064-1.11-2.89-1.617c-0.81-0.507-1.467-0.931-1.976-1.287
		c-1.666-1.18-3.019-2.074-4.04-2.688c-1.038-0.616-1.716-0.934-2.074-0.934c-0.186,0.384-0.261,0.768-0.214,1.166
		c-0.086,1.259-0.107,2.853-0.109,4.757c0.012,1.92,0.042,4.14,0.104,6.68c0.09,0.466,0.074,0.808-0.046,1.029
		c-0.121,0.233-0.33,0.342-0.661,0.342c-1.043,0-1.876-0.261-2.507-0.768c-0.633-0.507-1.052-1.262-1.25-2.29
		c-0.261-1.357-0.456-2.798-0.565-4.291c-0.114-1.508-0.131-3.086-0.051-4.745c-0.005-0.726-0.021-1.37-0.063-1.947
		c-0.042-0.575-0.114-1.11-0.21-1.589c-0.237-1.236-0.975-2.29-2.199-3.167c-1.229-0.891-1.885-1.522-1.957-1.892
		c-0.114-0.591-0.131-1.11-0.037-1.55c0.093-0.438,0.286-0.796,0.577-1.056c0.77-0.561,1.487-1.11,2.157-1.617
		c0.17-0.109,0.275-0.288,0.295-0.535c0.019-0.261-0.023-0.614-0.109-1.07c-0.051-0.258-0.107-0.547-0.168-0.861
		c-0.058-0.302-0.114-0.591-0.168-0.865c-0.377-2.385-0.782-4.853-1.227-7.43c-0.035-0.191-0.09-0.48-0.168-0.877
		c-0.079-0.412-0.207-0.934-0.388-1.578c-0.147-0.48-0.247-0.931-0.3-1.343c-0.051-0.412-0.111-0.794-0.177-1.138
		c-0.268-0.535-0.496-1.001-0.694-1.384c-0.198-0.399-0.323-0.768-0.391-1.112c-0.06-0.314-0.131-0.821-0.207-1.508
		c-0.076-0.685-0.145-1.163-0.203-1.467c-0.07-0.37-0.214-0.891-0.41-1.562c-0.2-0.675-0.323-1.18-0.388-1.525
		c-0.189-0.973-0.147-1.89,0.121-2.784c0.27-0.877,0.789-1.741,1.527-2.604c0.733-0.754,1.529-1.317,2.371-1.713
		c0.856-0.386,1.767-0.577,2.727-0.577c0.452,0,1.131,0.028,2.034,0.095c0.92,0.07,1.624,0.109,2.132,0.109
		c0.344,0,1.359,0.288,3.023,0.877c0.626,0.056,1.19,0.123,1.684,0.221c0.5,0.095,0.903,0.191,1.227,0.302
		c0.722,0.328,1.289,0.572,1.704,0.74c0.405,0.177,0.685,0.272,0.854,0.3c0.484,0.166,0.907,0.3,1.259,0.41
		c0.365,0.111,0.661,0.235,0.898,0.399c0.391,0.168,0.835,0.344,1.343,0.563c0.51,0.219,1.075,0.454,1.718,0.726
		c1.054,0.48,2.067,1.045,3.04,1.687c0.961,0.644,1.89,1.331,2.788,2.085c1.038,0.973,1.862,1.906,2.466,2.837
		c0.602,0.92,0.999,1.838,1.176,2.756c0.051,0.263,0.111,0.646,0.166,1.14c0.053,0.494,0.079,1.054,0.088,1.671
		c0.081,0.77-0.17,1.606-0.708,2.509c-0.556,0.893-1.41,1.88-2.574,2.951c-1.024,0.945-1.999,1.727-2.918,2.357
		c-0.922,0.63-1.797,1.068-2.621,1.343c-0.309,0.235-0.526,0.466-0.678,0.687c-0.21,0.261-0.699,0.644-1.469,1.124
		c-0.756,0.48-1.808,1.082-3.149,1.811c-2.422,1.303-4.15,2.164-5.195,2.576C233.929,285.345,233.449,285.785,233.544,286.277
		L233.544,286.277z M225.587,266.903c0.436-0.372,0.845-0.742,1.243-1.098c0.379-0.37,0.936-0.547,1.65-0.547
		c0.328,0,0.794,0.353,1.398,1.068c0.6,0.701,0.938,1.234,1.003,1.578c0.037,0.191,0.049,0.616,0.056,1.287
		c-0.009,0.673-0.051,1.578-0.118,2.729c-0.116,2.604-0.159,4.238-0.1,4.881c0.044,0.659,0.063,1.687,0.058,3.086
		c-0.03,0.344-0.051,0.796-0.053,1.357c0.046,0.247,0.121,0.412,0.237,0.521c0.116,0.109,0.251,0.166,0.417,0.166
		c4.803-2.674,7.291-4.073,7.462-4.182c0.21-0.056,0.415-0.123,0.644-0.219c0.214-0.097,0.429-0.193,0.628-0.302l0.44-0.768
		c1.373-0.987,2.775-2.043,4.217-3.167c0.886-0.808,1.504-1.592,1.859-2.371c0.374-0.768,0.468-1.55,0.319-2.332
		c-0.191-0.987-0.955-1.96-2.295-2.935c-1.336-0.959-3.241-1.878-5.702-2.77c-2.113-0.78-4.003-1.343-5.676-1.699
		c-1.673-0.37-3.163-0.549-4.48-0.549c-1.716,0-2.944,0.3-3.691,0.905c-0.761,0.602-1.029,1.494-0.8,2.671
		c0.172,0.907,0.374,1.592,0.605,2.074C225.133,266.75,225.352,266.956,225.587,266.903L225.587,266.903z M269.854,299.92
		c-0.293-1.508-0.48-2.77-0.554-3.799c-0.079-1.043-0.111-1.85-0.058-2.441c-0.142-0.452-0.302-0.917-0.463-1.398
		c-0.109-0.561-0.235-1.508-0.349-2.812c-0.116-1.315-0.256-3.028-0.393-5.155c-0.156-2.027-0.254-3.605-0.288-4.717
		c-0.035-1.11-0.044-1.795-0.009-2.03c-0.145-0.466-0.293-0.959-0.463-1.494c-0.172-0.535-0.399-1.124-0.685-1.769l-1.017-0.644
		l-0.284-0.48c-0.09-0.754-0.196-1.508-0.298-2.263c-0.109-0.768-0.172-1.536-0.186-2.318c-0.131-0.959-0.172-1.811-0.107-2.537
		c0.067-0.726,0.154-1.343,0.254-1.892c0.058-0.123,0.102-0.314,0.152-0.561c0.051-0.235,0.125-0.496,0.24-0.756
		c0.058-0.973,0.107-1.931,0.168-2.893c0.046-0.973,0.128-1.906,0.224-2.825c0.224-0.902,0.659-1.643,1.303-2.206
		c0.633-0.563,1.483-0.92,2.521-1.084c0.664-0.399,1.25-0.699,1.743-0.905c0.498-0.205,0.917-0.3,1.231-0.3
		c0.37,0,0.705,0.152,0.978,0.438c0.265,0.302,0.452,0.715,0.556,1.25c0.042,0.219,0.074,0.959,0.116,2.235
		c0.026,1.275,0.035,3.031,0.014,5.28c0.063,0.752,0.1,1.643,0.104,2.671c0.023,1.043-0.002,2.262-0.042,3.689
		c-0.095,1.578-0.156,3.319-0.179,5.197c-0.035,1.892,0.026,3.977,0.135,6.253c0.065,0.973,0.097,1.92,0.111,2.853
		c0.016,0.945,0.063,1.89,0.111,2.851c0.049,1.112,0.109,2.138,0.177,3.126c0.076,0.975,0.177,1.852,0.328,2.632
		c0.056,0.288,0.14,0.577,0.23,0.838c0.093,0.275,0.156,0.521,0.203,0.768c0.114,0.3,0.172,0.687,0.21,1.166
		c0.026,0.48,0.053,1.054,0.1,1.727c0.03,0.644,0.046,1.234,0.065,1.757c0.019,0.519,0.053,0.917,0.102,1.178
		c0.265,1.37,0.519,2.469,0.752,3.319c0.219,0.849,0.408,1.398,0.542,1.673c0.312,0.712,0.659,1.494,1.01,2.33
		c0.086,0.454-0.386,1.126-1.417,2.03c-1.036,0.891-1.827,1.345-2.36,1.345c-0.316,0-0.626-0.111-0.931-0.342
		c-0.291-0.235-0.614-0.563-0.98-1.029c-0.261-0.426-0.486-0.81-0.664-1.166c-0.177-0.342-0.293-0.673-0.349-0.961
		c-0.032-0.166-0.026-0.41,0.014-0.768c0.044-0.342,0.049-0.602,0.021-0.754c-0.374-0.81-0.738-1.481-1.117-2.016
		c-0.005,0.261-0.039,0.219-0.114-0.166C270.191,301.674,270.051,300.963,269.854,299.92L269.854,299.92z M289.783,262.789
		c-0.182-0.372-0.526-0.877-1.029-1.494c-0.519-0.63-1.152-1.426-1.929-2.402c-0.787-0.877-1.37-1.562-1.769-2.057
		c-0.381-0.491-0.598-0.835-0.635-1.026c-0.147-0.754,0.48-1.99,1.876-3.703c1.41-1.73,2.505-2.59,3.314-2.59
		c0.637,0.247,1.108,0.48,1.428,0.726h1.208c0.796,0.37,1.601,0.712,2.434,1.043c0.828,0.314,1.631,0.644,2.429,0.999
		c2.355,0.989,3.866,1.785,4.517,2.388c0.651,0.602,1.643,1.275,2.967,2.016c0.207,0.219,0.591,0.577,1.18,1.068
		c0.575,0.496,1.352,1.112,2.32,1.866c0.125,0.081,0.288,0.219,0.494,0.438c0.207,0.221,0.417,0.44,0.656,0.687
		c1.41,1.359,2.627,2.618,3.645,3.77c1.015,1.138,1.811,2.208,2.402,3.209c0.752,1.192,1.382,2.484,1.892,3.84
		c0.524,1.37,0.934,2.851,1.243,4.457c0.57,2.962,0.657,5.469,0.238,7.499c-0.417,2.032-1.373,3.54-2.883,4.526
		c-0.125,0.135-0.328,0.286-0.596,0.466c-0.256,0.166-0.519,0.37-0.766,0.577l-0.436,0.519c-0.353,0.507-1.003,1.056-1.962,1.634
		c-0.945,0.575-2.225,1.192-3.81,1.864c-2.12,0.877-4.334,1.836-6.658,2.879c-0.63,0.358-1.18,0.63-1.631,0.849
		c-0.468,0.207-0.817,0.316-1.091,0.316c-0.78,0-1.236,0.053-1.38,0.166c-0.142,0.109-0.088,1.178,0.182,3.221
		c0.172,1.317,0.34,2.618,0.503,3.882c0.086,0.452,0.326,0.987,0.731,1.589c0.391,0.602,0.957,1.262,1.68,1.962
		c-0.145,0.535-0.316,1.054-0.521,1.562c-0.219,0.51-0.48,1.07-0.833,1.659c-0.342,0.715-0.729,1.264-1.166,1.617
		c-0.44,0.37-0.884,0.549-1.336,0.549c-0.893,0-1.624-0.466-2.235-1.41c-0.591-0.936-1.066-2.346-1.428-4.224
		c-0.114-0.589-0.161-1.331-0.14-2.223c0-0.905,0.076-2.016,0.196-3.317l-0.657-2.334c-0.372-0.163-0.75-0.34-1.117-0.533
		c-0.363-0.177-0.731-0.384-1.089-0.605c-0.519-0.203-0.91-0.452-1.152-0.71c-0.258-0.277-0.405-0.538-0.459-0.81
		c-0.06-0.316,0.494-0.796,1.659-1.426c1.183-0.63,1.664-1.467,1.464-2.509c-0.056-0.288-0.196-0.726-0.429-1.289
		c-0.23-0.563-0.363-0.973-0.415-1.234c-0.067-1.55-0.095-3.125-0.111-4.703c0.023-0.166,0-0.644-0.072-1.441
		c-0.072-0.81-0.184-1.962-0.335-3.456c-0.005-0.452-0.007-1.029,0.021-1.727c0.032-0.701,0.056-1.494,0.06-2.399l-0.554-1.455
		L289.783,262.789L289.783,262.789z M292.154,258.015c-0.163,0-0.268,0.042-0.321,0.109c-0.053,0.084-0.07,0.207-0.039,0.372
		c3.801,3.291,5.846,5.716,6.151,7.294c0.09,0.48-0.028,2.565-0.346,6.24c-0.335,3.675-0.605,5.898-0.826,6.666l0.637,1.684
		c-0.205,2.702-0.307,5.02-0.291,6.952c0.018,1.947,0.123,3.484,0.344,4.636c0.058,0.302,0.166,0.507,0.316,0.644
		c0.138,0.138,0.326,0.205,0.533,0.205c0.272,0,0.731-0.123,1.382-0.37c0.668-0.233,1.481-0.644,2.477-1.234
		c0.626-0.384,1.259-0.729,1.899-1.043c0.633-0.328,1.285-0.659,1.945-1.001c0.27-0.166,0.572-0.37,0.907-0.63
		c0.349-0.247,0.715-0.549,1.101-0.905c0.549-0.48,0.982-0.863,1.308-1.18c0.312-0.3,0.519-0.494,0.614-0.575
		c0.996-0.81,1.68-1.811,2.037-3.019c0.363-1.192,0.384-2.63,0.067-4.275c-0.189-0.989-0.494-2.004-0.924-3.019
		c-0.429-1.015-0.973-2.055-1.629-3.125l-0.268-0.961c-0.081-0.134-0.21-0.286-0.374-0.452c-0.172-0.18-0.344-0.37-0.554-0.589
		c-0.198-0.166-0.412-0.37-0.659-0.646c-0.228-0.261-0.473-0.602-0.722-1.04c-0.584-0.824-1.564-1.85-2.939-3.086
		c-1.359-1.22-3.142-2.646-5.345-4.249c-0.251-0.18-0.526-0.399-0.852-0.659c-0.321-0.247-0.664-0.521-1.05-0.821
		c-0.551-0.235-1.211-0.51-1.972-0.824C294.02,258.811,293.141,258.441,292.154,258.015L292.154,258.015z"/>
	<path style="fill:#A8A88D;" d="M266.139,306.352c0,0,1.73-0.18,1.908,0.442c0.177,0.621,0.754,2.176,0.442,2.397
		c-0.309,0.221-0.575,0.715-1.373,0.177c-0.798-0.535-1.333-0.533-1.599-1.019c-0.265-0.489-0.312-1.952-0.312-1.952l1.152-0.06
		L266.139,306.352L266.139,306.352z"/>
	<path style="fill:#A8A88D;" d="M284.244,304.824c0,0,1.727-0.18,1.906,0.442c0.179,0.621,0.756,2.176,0.445,2.397
		c-0.309,0.221-0.577,0.715-1.375,0.177c-0.798-0.535-1.331-0.533-1.596-1.019c-0.268-0.489-0.312-1.952-0.312-1.952l1.152-0.06
		L284.244,304.824z"/>
</g>
<g>
</g>
<g>
</g>
<g>
</g>
<g>
</g>
<g>
</g>
<g>
</g>
<g>
</g>
<g>
</g>
<g>
</g>
<g>
</g>
<g>
</g>
<g>
</g>
<g>
</g>
<g>
</g>
<g>
</g>
</svg>
